# xmcd
#
# Track frame offsets: 
#        182
#        15700
#        36970
#        52820
#        69477
#        82422
#        98207
#        112545
#        130852
#        149107
#        169680
#
# Disc length: 2511 seconds
#
# Revision: 1
# Processed by: cddbd v1.5.2PL0 Copyright (c) Steve Scherf et al.
# Submitted via: ExactAudioCopy v1.1
#
DISCID=9309cd0b
DTITLE=Gene Parsons and Meridian Green - Birds Of A Feather
DYEAR=1992
DGENRE=Country
TTITLE0=Don't Miss Your Water
TTITLE1=Birds Of A Feather
TTITLE2=Lookin' For Trouble
TTITLE3=California Blues
TTITLE4=Lily's Hotbread
TTITLE5=No, You're Not Broken
TTITLE6=Swing Low
TTITLE7=Spoon River
TTITLE8=Wind and Rain
TTITLE9=Catch The Wind
TTITLE10=Quit Joys Of Brotherhood
EXTD=YEAR: 1992
EXTT0=
EXTT1=
EXTT2=
EXTT3=
EXTT4=
EXTT5=
EXTT6=
EXTT7=
EXTT8=
EXTT9=
EXTT10=
PLAYORDER=
